<svg width="20" height="20" viewBox="0 0 20 20" fill="none" xmlns="http://www.w3.org/2000/svg">
<path d="M0.625 12.3751C0.79076 12.3751 0.949732 12.4409 1.06694 12.5582C1.18415 12.6754 1.25 12.8343 1.25 13.0001V16.1251C1.25 16.4566 1.3817 16.7746 1.61612 17.009C1.85054 17.2434 2.16848 17.3751 2.5 17.3751H17.5C17.8315 17.3751 18.1495 17.2434 18.3839 17.009C18.6183 16.7746 18.75 16.4566 18.75 16.1251V13.0001C18.75 12.8343 18.8158 12.6754 18.9331 12.5582C19.0503 12.4409 19.2092 12.3751 19.375 12.3751C19.5408 12.3751 19.6997 12.4409 19.8169 12.5582C19.9342 12.6754 20 12.8343 20 13.0001V16.1251C20 16.7881 19.7366 17.424 19.2678 17.8929C18.7989 18.3617 18.163 18.6251 17.5 18.6251H2.5C1.83696 18.6251 1.20107 18.3617 0.732233 17.8929C0.263392 17.424 0 16.7881 0 16.1251V13.0001C0 12.8343 0.065848 12.6754 0.183058 12.5582C0.300269 12.4409 0.45924 12.3751 0.625 12.3751Z" fill="white"/>
<path d="M9.55731 14.8176C9.61537 14.8758 9.68434 14.922 9.76027 14.9535C9.8362 14.985 9.9176 15.0012 9.99981 15.0012C10.082 15.0012 10.1634 14.985 10.2394 14.9535C10.3153 14.922 10.3843 14.8758 10.4423 14.8176L14.1923 11.0676C14.3097 10.9502 14.3756 10.7911 14.3756 10.6251C14.3756 10.4591 14.3097 10.2999 14.1923 10.1826C14.075 10.0652 13.9158 9.9993 13.7498 9.9993C13.5838 9.9993 13.4247 10.0652 13.3073 10.1826L10.6248 12.8663V1.87509C10.6248 1.70933 10.559 1.55036 10.4418 1.43315C10.3245 1.31594 10.1656 1.25009 9.99981 1.25009C9.83405 1.25009 9.67508 1.31594 9.55787 1.43315C9.44066 1.55036 9.37481 1.70933 9.37481 1.87509V12.8663L6.69231 10.1826C6.57496 10.0652 6.41578 9.9993 6.24981 9.9993C6.08384 9.9993 5.92467 10.0652 5.80731 10.1826C5.68995 10.2999 5.62402 10.4591 5.62402 10.6251C5.62402 10.7911 5.68995 10.9502 5.80731 11.0676L9.55731 14.8176Z" fill="white"/>
</svg>
